<svg id="Layer_1" data-name="Layer 1" xmlns="http://www.w3.org/2000/svg" viewBox="0 0 1280 1024"><defs><style>.cls-1{fill:#353535;}.cls-2{fill:#265a8f;}.cls-3{fill:#c53c02;}.cls-4{fill:#ecc700;}</style></defs><title>logo</title><rect x="245" y="363" width="99" height="387" rx="7.69"/><rect class="cls-1" x="115" y="450" width="99" height="213" rx="6.71"/><rect class="cls-1" x="245" y="363" width="99" height="387" rx="7.69"/><rect class="cls-1" x="935" y="358" width="99" height="387" rx="7.69"/><rect class="cls-1" x="1067" y="454" width="99" height="213" rx="6.71"/><path class="cls-1" d="M115,600s-34-9-34-43,34-36.66,34-36.66"/><path class="cls-1" d="M1164,600s34-9,34-43-34-36.66-34-36.66"/><rect class="cls-2" x="377" y="495" width="525" height="113" rx="7.69"/><path class="cls-3" d="M557,458.5H534.18V418.72H500.35V458.5h-23V363.23h23v37.82h33.83V363.23H557Z"/><path class="cls-3" d="M630.62,418.06H594.5v22.77h42.66V458.5H571.54V363.23h65.75V381H594.5v20.08h36.12Z"/><path class="cls-3" d="M700.63,440.7H669.16l-5.5,17.8H639.13l34.93-95.27h21.6l35.2,95.27H706.19Zm-26-17.73h20.48l-10.27-33Z"/><path class="cls-3" d="M760.76,426.18V458.5h-23V363.23h38a44.29,44.29,0,0,1,19.33,4,30.26,30.26,0,0,1,13,11.45,31.24,31.24,0,0,1,4.62,16.85q0,13.94-10,22.28t-27.38,8.34Zm0-17.73h15q6.68,0,10.17-3.34t3.5-9.42q0-6.68-3.6-10.67a12.73,12.73,0,0,0-9.81-4H760.76Z"/><path class="cls-4" d="M619.22,633.94v62.35a35.79,35.79,0,0,1-4.52,18.35,29.24,29.24,0,0,1-13,11.81q-8.44,4.06-20,4.06-17.4,0-27.42-9t-10.2-24.73V633.94h23.09v63.27q.4,15.63,14.53,15.63,7.13,0,10.8-3.92t3.66-12.76V633.94Z"/><path class="cls-4" d="M656.51,696.88V729.2h-23V633.94h38a44.29,44.29,0,0,1,19.33,4,30.26,30.26,0,0,1,13,11.45,31.24,31.24,0,0,1,4.62,16.85q0,13.93-10,22.28t-27.38,8.34Zm0-17.73h15q6.68,0,10.17-3.34t3.5-9.42q0-6.67-3.6-10.67c-2.39-2.66-5.67-4-9.81-4.05H656.51Z"/><path class="cls-4" d="M720.3,719.32a10.17,10.17,0,0,1,3.5-8,13.82,13.82,0,0,1,17.47,0,10.78,10.78,0,0,1,0,15.9,13.82,13.82,0,0,1-17.47,0A10.16,10.16,0,0,1,720.3,719.32ZM741.63,699H723.77L721,633.94h23.49Z"/></svg>